# xmcd
#
# Track frame offsets:
#       150
#       16748
#       32928
#       46002
#       64047
#       78579
#       95294
#       109736
#       123050
#       139104
#       154515
#       170576
#       189478
#       205836
#       221966
#       243843
#
# Disc length: 3512 seconds
#
# Revision: 0
# Processed by: cddbd v1.5.2PL0 Copyright (c) Steve Scherf et al.
# Submitted via: WaveLab 4.01
#
DISCID=cf0db610
DTITLE=Monika Martin - Monika Martin Star Edition
DYEAR=2012
DGENRE=Schlager
TTITLE0=Hast du heute schon gelächelt
TTITLE1=Du warst da (als der Sommer kam)
TTITLE2=Ein kleines Glück
TTITLE3=La Luna Blu
TTITLE4=Flieg, kleine Schwalbe, flieg
TTITLE5=Kleine Möwe Jonatan
TTITLE6=Lass die Träume nie verloren geh'n (Karel Gott)
TTITLE7=Himmlische Geigen
TTITLE8=Ein Schiff, das deinen Namen trägt
TTITLE9=Napoli Adieu
TTITLE10=Mein Liebeslied
TTITLE11=Am Anfang der Zeit
TTITLE12=Bora Bora Bay
TTITLE13=Erste Liebe meines Lebens
TTITLE14=Monika Martin Hit Medley
TTITLE15=Wolgalied
EXTD=
EXTT0=
EXTT1=
EXTT2=
EXTT3=
EXTT4=
EXTT5=
EXTT6=
EXTT7=
EXTT8=
EXTT9=
EXTT10=
EXTT11=
EXTT12=
EXTT13=
EXTT14=
EXTT15=
PLAYORDER=
